<svg width="16" height="17" viewBox="0 0 16 17" fill="none" xmlns="http://www.w3.org/2000/svg">
<path d="M13.5 1.41028H2.5C2.10218 1.41028 1.72064 1.56831 1.43934 1.84962C1.15804 2.13092 1 2.51245 1 2.91028L1 13.9103C1 14.3081 1.15804 14.6896 1.43934 14.9709C1.72064 15.2522 2.10218 15.4103 2.5 15.4103H6.78906V10.6506H4.82031V8.41028H6.78906V6.70278C6.78906 4.76059 7.94531 3.68778 9.71625 3.68778C10.5644 3.68778 11.4513 3.83903 11.4513 3.83903V5.74528H10.4741C9.51125 5.74528 9.21094 6.34278 9.21094 6.95559V8.41028H11.3603L11.0166 10.6506H9.21094V15.4103H13.5C13.8978 15.4103 14.2794 15.2522 14.5607 14.9709C14.842 14.6896 15 14.3081 15 13.9103V2.91028C15 2.51245 14.842 2.13092 14.5607 1.84962C14.2794 1.56831 13.8978 1.41028 13.5 1.41028Z" fill="white"/>
</svg>
