<svg width="16" height="17" viewBox="0 0 16 17" fill="none" xmlns="http://www.w3.org/2000/svg">
<path d="M3.14795 1.66753C3.14775 2.10953 2.98172 2.53334 2.68639 2.84573C2.39107 3.15812 1.99063 3.33349 1.57319 3.33327C1.15575 3.33305 0.755481 3.15725 0.460451 2.84455C0.16542 2.53185 -0.000208525 2.10787 1.97032e-07 1.66586C0.000208919 1.22386 0.166238 0.800048 0.461564 0.487661C0.756889 0.175274 1.15732 -9.87225e-05 1.57476 0.000122279C1.99221 0.00034328 2.39247 0.17614 2.6875 0.48884C2.98253 0.801539 3.14816 1.22553 3.14795 1.66753ZM3.19517 4.56737H0.0472195V15.0001H3.19517V4.56737ZM8.16894 4.56737H5.03673V15.0001H8.13746V9.52543C8.13746 6.4756 11.8914 6.19228 11.8914 9.52543V15.0001H15V8.39216C15 3.25077 9.44386 3.44243 8.13746 5.96729L8.16894 4.56737Z" fill="white"/>
</svg>
