<svg width="16" height="17" viewBox="0 0 16 17" fill="none" xmlns="http://www.w3.org/2000/svg">
<path d="M14.3553 5.1514C14.3655 5.29353 14.3655 5.43569 14.3655 5.57781C14.3655 9.91281 11.066 14.9077 5.03553 14.9077C3.17766 14.9077 1.45178 14.3697 0 13.4357C0.263969 13.4661 0.51775 13.4763 0.791875 13.4763C2.32484 13.4763 3.73603 12.9585 4.86294 12.0753C3.42131 12.0448 2.21319 11.1007 1.79694 9.80115C2 9.83159 2.20303 9.8519 2.41625 9.8519C2.71066 9.8519 3.00509 9.81128 3.27919 9.74025C1.77666 9.43565 0.649719 8.11587 0.649719 6.52197V6.48137C1.08625 6.72503 1.59391 6.87731 2.13194 6.89759C1.24869 6.30875 0.670031 5.30369 0.670031 4.16662C0.670031 3.5575 0.832438 2.99912 1.11672 2.51181C2.73094 4.50165 5.15734 5.80112 7.87813 5.94328C7.82738 5.69962 7.79691 5.44584 7.79691 5.19203C7.79691 3.3849 9.25884 1.91284 11.0761 1.91284C12.0203 1.91284 12.873 2.30878 13.472 2.94837C14.2131 2.80625 14.9238 2.53212 15.5533 2.1565C15.3096 2.91794 14.7918 3.55753 14.1116 3.96359C14.7715 3.89256 15.4111 3.70978 15.9999 3.456C15.5533 4.10572 14.9949 4.68437 14.3553 5.1514Z" fill="white"/>
</svg>
