<svg width="203" height="60" viewBox="0 0 203 60" fill="none" xmlns="http://www.w3.org/2000/svg">
<path d="M23.7965 45.9196V59.4863L47.5887 45.7439V32.179L23.7965 45.9196Z" fill="white"/>
<path d="M34.447 19.718L46.1864 12.9346L23.7965 0V13.5663L34.447 19.718Z" fill="#0B267D"/>
<path d="M14.5497 23.7686V37.3393L23.7961 42.6789V29.1143L14.5497 23.7686Z" fill="#91A1D4"/>
<path d="M47.5887 15.3662L23.7965 29.1143V42.6789L47.5887 28.9365V15.3662Z" fill="white"/>
<path d="M1.41683 12.9267L13.0859 19.7497L23.7961 13.5663V0L1.41683 12.9267Z" fill="white"/>
<path d="M11.7434 38.9606V22.1413L0 15.3601V45.7435L23.7961 59.4859V45.9192L11.7434 38.9606Z" fill="#91A1D4"/>
<path d="M92.1342 17.783L90.9695 22.7798H82.9671L78.3835 42.5792H71.9215L76.505 22.7798H68.4275L69.5922 17.783H92.1342Z" fill="white"/>
<path d="M89.1896 42.5792L95.3887 15.8293H101.776L98.9578 28.0772L98.3191 28.9788C98.6447 27.9269 99.1331 26.9876 99.7844 26.1611C100.436 25.3346 101.25 24.6708 102.226 24.1699C103.203 23.669 104.318 23.4185 105.57 23.4185C106.822 23.4185 107.887 23.7065 108.764 24.2826C109.665 24.8587 110.291 25.6727 110.642 26.7246C111.018 27.7766 111.043 29.0289 110.717 30.4816L107.899 42.5792H101.513L104.105 31.496C104.33 30.4942 104.243 29.7177 103.842 29.1667C103.441 28.5906 102.79 28.3026 101.888 28.3026C101.212 28.3026 100.611 28.4654 100.085 28.791C99.584 29.0916 99.1457 29.5549 98.77 30.1811C98.4193 30.7822 98.1438 31.5336 97.9434 32.4353L95.5765 42.5792H89.1896Z" fill="white"/>
<path d="M122.679 42.9173C120.825 42.9173 119.197 42.5667 117.794 41.8654C116.392 41.139 115.302 40.1371 114.526 38.8598C113.749 37.5824 113.361 36.0921 113.361 34.3889C113.361 32.285 113.787 30.419 114.639 28.791C115.515 27.1379 116.743 25.8355 118.32 24.8837C119.923 23.9319 121.827 23.4561 124.031 23.4561C125.86 23.4561 127.412 23.8067 128.69 24.508C129.992 25.1843 130.982 26.1486 131.658 27.4009C132.334 28.6532 132.672 30.131 132.672 31.8342C132.672 32.3101 132.647 32.811 132.597 33.337C132.547 33.8629 132.447 34.3764 132.296 34.8773H117.494V31.4209H128.126L126.36 32.3977C126.461 32.0471 126.523 31.7465 126.548 31.496C126.573 31.2456 126.586 31.0076 126.586 30.7822C126.586 30.131 126.473 29.5925 126.248 29.1667C126.022 28.7409 125.709 28.4278 125.308 28.2274C124.908 28.002 124.432 27.8893 123.881 27.8893C122.979 27.8893 122.228 28.1022 121.627 28.528C121.051 28.9538 120.587 29.5173 120.237 30.2187C119.886 30.8949 119.635 31.6338 119.485 32.4353C119.36 33.2368 119.297 34.0132 119.297 34.7646C119.297 35.5661 119.448 36.2424 119.748 36.7934C120.074 37.3444 120.5 37.7702 121.025 38.0708C121.577 38.3463 122.215 38.4841 122.942 38.4841C123.843 38.4841 124.57 38.2837 125.121 37.8829C125.672 37.4571 126.097 36.9312 126.398 36.305L131.658 38.3713C131.232 39.3231 130.568 40.1371 129.667 40.8134C128.79 41.4897 127.751 42.0156 126.548 42.3913C125.371 42.742 124.081 42.9173 122.679 42.9173Z" fill="white"/>
<path d="M136.693 42.5792V17.783H148.753C151.809 17.808 154.063 18.3966 155.516 19.5488C156.969 20.6759 157.695 22.3164 157.695 24.4704C157.695 25.8731 157.282 27.0878 156.455 28.1147C155.629 29.1166 154.364 29.7553 152.661 30.0308V30.0684C154.564 30.3188 155.979 30.9826 156.906 32.0596C157.858 33.1115 158.334 34.3889 158.334 35.8917C158.334 38.0207 157.582 39.6738 156.079 40.851C154.577 42.0031 152.322 42.5792 149.317 42.5792H136.693ZM142.93 38.0332H148.227C149.405 38.0332 150.281 37.7953 150.857 37.3194C151.433 36.8435 151.721 36.1547 151.721 35.253C151.721 34.3764 151.433 33.7127 150.857 33.2618C150.281 32.7859 149.405 32.548 148.227 32.548H142.93V38.0332ZM142.93 27.9269H147.626C149.931 27.9269 151.083 27.0252 151.083 25.2218C151.083 23.4185 149.931 22.5168 147.626 22.5168H142.93V27.9269Z" fill="white"/>
<path d="M170.867 23.4185C172.845 23.4185 174.574 23.8067 176.051 24.5832C177.554 25.3346 178.719 26.4491 179.545 27.9269C180.397 29.3796 180.823 31.1329 180.823 33.1867C180.823 35.2405 180.397 37.0063 179.545 38.4841C178.719 39.9368 177.554 41.0513 176.051 41.8278C174.574 42.5792 172.845 42.9549 170.867 42.9549C168.938 42.9549 167.223 42.5792 165.72 41.8278C164.217 41.0513 163.04 39.9368 162.188 38.4841C161.362 37.0063 160.948 35.2405 160.948 33.1867C160.948 31.1329 161.362 29.3796 162.188 27.9269C163.04 26.4491 164.217 25.3346 165.72 24.5832C167.223 23.8067 168.938 23.4185 170.867 23.4185ZM170.867 27.9645C170.14 27.9645 169.514 28.1398 168.988 28.4904C168.462 28.8411 168.062 29.4046 167.786 30.1811C167.511 30.9575 167.373 31.9594 167.373 33.1867C167.373 34.414 167.511 35.4158 167.786 36.1923C168.062 36.9437 168.462 37.5072 168.988 37.8829C169.514 38.2336 170.14 38.4089 170.867 38.4089C171.618 38.4089 172.257 38.2336 172.783 37.8829C173.309 37.5072 173.71 36.9437 173.985 36.1923C174.261 35.4158 174.398 34.414 174.398 33.1867C174.398 31.9594 174.261 30.9575 173.985 30.1811C173.71 29.4046 173.309 28.8411 172.783 28.4904C172.257 28.1398 171.618 27.9645 170.867 27.9645Z" fill="white"/>
<path d="M188.911 23.7942L193.495 32.2474L195.599 32.0596L203 42.5792H195.674L190.94 34.0132H188.723L181.548 23.7942H188.911ZM202.85 23.7942L195.749 33.9381L193.382 33.7878L188.46 42.5792H181.285L188.836 31.9844L191.015 32.285L195.674 23.7942H202.85Z" fill="white"/>
</svg>
